<svg width="222" height="98" viewBox="0 0 222 98" fill="none" xmlns="http://www.w3.org/2000/svg">
<path d="M15.048 84.36C13.128 84.36 11.34 84.048 9.684 83.424C8.052 82.776 6.624 81.876 5.4 80.724C4.2 79.548 3.264 78.168 2.592 76.584C1.92 75 1.584 73.272 1.584 71.4C1.584 69.528 1.92 67.8 2.592 66.216C3.264 64.632 4.212 63.264 5.436 62.112C6.66 60.936 8.088 60.036 9.72 59.412C11.352 58.764 13.14 58.44 15.084 58.44C17.148 58.44 19.032 58.8 20.736 59.52C22.44 60.216 23.88 61.26 25.056 62.652L22.032 65.496C21.12 64.512 20.1 63.78 18.972 63.3C17.844 62.796 16.62 62.544 15.3 62.544C13.98 62.544 12.768 62.76 11.664 63.192C10.584 63.624 9.636 64.236 8.82 65.028C8.028 65.82 7.404 66.756 6.948 67.836C6.516 68.916 6.3 70.104 6.3 71.4C6.3 72.696 6.516 73.884 6.948 74.964C7.404 76.044 8.028 76.98 8.82 77.772C9.636 78.564 10.584 79.176 11.664 79.608C12.768 80.04 13.98 80.256 15.3 80.256C16.62 80.256 17.844 80.016 18.972 79.536C20.1 79.032 21.12 78.276 22.032 77.268L25.056 80.148C23.88 81.516 22.44 82.56 20.736 83.28C19.032 84 17.136 84.36 15.048 84.36ZM40.0163 64.56C41.5523 64.56 42.9203 64.86 44.1203 65.46C45.3443 66.06 46.3043 66.984 47.0003 68.232C47.6963 69.456 48.0443 71.04 48.0443 72.984V84H43.5443V73.56C43.5443 71.856 43.1363 70.584 42.3203 69.744C41.5283 68.904 40.4123 68.484 38.9723 68.484C37.9163 68.484 36.9803 68.7 36.1643 69.132C35.3483 69.564 34.7123 70.212 34.2563 71.076C33.8243 71.916 33.6083 72.984 33.6083 74.28V84H29.1083V57.288H33.6083V69.96L32.6363 68.376C33.3083 67.152 34.2803 66.216 35.5523 65.568C36.8483 64.896 38.3363 64.56 40.0163 64.56ZM65.5968 84V80.112L65.3448 79.284V72.48C65.3448 71.16 64.9488 70.14 64.1568 69.42C63.3648 68.676 62.1648 68.304 60.5568 68.304C59.4768 68.304 58.4088 68.472 57.3528 68.808C56.3208 69.144 55.4448 69.612 54.7248 70.212L52.9608 66.936C53.9928 66.144 55.2168 65.556 56.6328 65.172C58.0728 64.764 59.5608 64.56 61.0968 64.56C63.8808 64.56 66.0288 65.232 67.5408 66.576C69.0768 67.896 69.8448 69.948 69.8448 72.732V84H65.5968ZM59.5488 84.252C58.1088 84.252 56.8488 84.012 55.7688 83.532C54.6888 83.028 53.8488 82.344 53.2488 81.48C52.6728 80.592 52.3848 79.596 52.3848 78.492C52.3848 77.412 52.6368 76.44 53.1408 75.576C53.6688 74.712 54.5208 74.028 55.6968 73.524C56.8728 73.02 58.4328 72.768 60.3768 72.768H65.9568V75.756H60.7008C59.1648 75.756 58.1328 76.008 57.6048 76.512C57.0768 76.992 56.8128 77.592 56.8128 78.312C56.8128 79.128 57.1368 79.776 57.7848 80.256C58.4328 80.736 59.3328 80.976 60.4848 80.976C61.5888 80.976 62.5728 80.724 63.4368 80.22C64.3248 79.716 64.9608 78.972 65.3448 77.988L66.1008 80.688C65.6688 81.816 64.8888 82.692 63.7608 83.316C62.6568 83.94 61.2528 84.252 59.5488 84.252ZM82.856 84.252C80.744 84.252 79.112 83.712 77.96 82.632C76.808 81.528 76.232 79.908 76.232 77.772V60.528H80.732V77.664C80.732 78.576 80.96 79.284 81.416 79.788C81.896 80.292 82.556 80.544 83.396 80.544C84.404 80.544 85.244 80.28 85.916 79.752L87.176 82.956C86.648 83.388 86 83.712 85.232 83.928C84.464 84.144 83.672 84.252 82.856 84.252ZM73.064 68.52V64.92H85.88V68.52H73.064ZM97.6568 84.252C95.5448 84.252 93.9128 83.712 92.7607 82.632C91.6088 81.528 91.0328 79.908 91.0328 77.772V60.528H95.5328V77.664C95.5328 78.576 95.7608 79.284 96.2168 79.788C96.6968 80.292 97.3568 80.544 98.1968 80.544C99.2048 80.544 100.045 80.28 100.717 79.752L101.977 82.956C101.449 83.388 100.801 83.712 100.033 83.928C99.2648 84.144 98.4728 84.252 97.6568 84.252ZM87.8648 68.52V64.92H100.681V68.52H87.8648ZM106.911 91.236C105.975 91.236 105.039 91.08 104.103 90.768C103.167 90.456 102.387 90.024 101.763 89.472L103.563 86.16C104.019 86.568 104.535 86.892 105.111 87.132C105.687 87.372 106.275 87.492 106.875 87.492C107.691 87.492 108.351 87.288 108.855 86.88C109.359 86.472 109.827 85.788 110.259 84.828L111.375 82.308L111.735 81.768L119.007 64.776H123.327L114.327 85.548C113.727 86.988 113.055 88.128 112.311 88.968C111.591 89.808 110.775 90.396 109.863 90.732C108.975 91.068 107.991 91.236 106.911 91.236ZM110.871 84.684L102.195 64.776H106.875L113.931 81.372L110.871 84.684Z" fill="black"/>
<path d="M121.683 93.9683C121.683 93.9683 122.126 84.727 131.206 85.8012Z" fill="#F0F0F0"/>
<path d="M119.143 85.0794C121.597 85.0794 123.587 83.0895 123.587 80.6349C123.587 78.1803 121.597 76.1905 119.143 76.1905C116.688 76.1905 114.698 78.1803 114.698 80.6349C114.698 83.0895 116.688 85.0794 119.143 85.0794Z" fill="#F0F0F0"/>
<path d="M119.778 88.254H118.508V97.1429H119.778V88.254Z" fill="#F0F0F0"/>
<path d="M163.905 80C184.068 80 200.413 63.6548 200.413 43.4921C200.413 23.3293 184.068 6.98413 163.905 6.98413C143.742 6.98413 127.397 23.3293 127.397 43.4921C127.397 63.6548 143.742 80 163.905 80Z" fill="#3F3D56"/>
<path d="M140.896 46.3492C141.808 45.2691 142.948 44.4003 144.235 43.8041C145.523 43.2079 146.928 42.8989 148.349 42.8989C149.771 42.8989 151.175 43.2079 152.463 43.8041C153.751 44.4003 154.891 45.2691 155.802 46.3492C157.347 44.89 158.419 43.0104 158.884 40.9479C159.349 38.8855 159.185 36.7329 158.414 34.7623C157.644 32.7918 156.3 31.0918 154.553 29.8773C152.806 28.6628 150.734 27.9884 148.6 27.9394C146.466 27.8904 144.365 28.4689 142.563 29.6018C140.76 30.7348 139.338 32.3712 138.476 34.3043C137.613 36.2373 137.349 38.3801 137.717 40.4617C138.085 42.5433 139.068 44.4701 140.542 45.9986C140.657 46.1182 140.775 46.2351 140.896 46.3492Z" fill="white"/>
<path d="M170.004 46.3492C170.889 45.2691 171.995 44.4003 173.245 43.8041C174.495 43.2079 175.858 42.8989 177.238 42.8989C178.618 42.8989 179.981 43.2079 181.231 43.8041C182.481 44.4003 183.587 45.2691 184.472 46.3492C185.971 44.8901 187.011 43.0104 187.463 40.9479C187.914 38.8855 187.755 36.7329 187.007 34.7623C186.259 32.7918 184.954 31.0918 183.259 29.8773C181.563 28.6628 179.552 27.9884 177.481 27.9394C175.41 27.8904 173.37 28.4689 171.621 29.6018C169.872 30.7348 168.492 32.3712 167.655 34.3043C166.818 36.2373 166.561 38.3801 166.918 40.4617C167.275 42.5433 168.23 44.4701 169.66 45.9986C169.772 46.1182 169.887 46.2351 170.004 46.3492Z" fill="white"/>
<path d="M144.54 38.7301C146.643 38.7301 148.349 37.0246 148.349 34.9206C148.349 32.8167 146.643 31.1111 144.54 31.1111C142.436 31.1111 140.73 32.8167 140.73 34.9206C140.73 37.0246 142.436 38.7301 144.54 38.7301Z" fill="#3F3D56"/>
<path d="M173.746 38.7301C175.85 38.7301 177.556 37.0246 177.556 34.9206C177.556 32.8167 175.85 31.1111 173.746 31.1111C171.642 31.1111 169.937 32.8167 169.937 34.9206C169.937 37.0246 171.642 38.7301 173.746 38.7301Z" fill="#3F3D56"/>
<path d="M137.556 56.5079C140.01 56.5079 142 54.6602 142 52.381C142 50.1017 140.01 48.254 137.556 48.254C135.101 48.254 133.111 50.1017 133.111 52.381C133.111 54.6602 135.101 56.5079 137.556 56.5079Z" fill="#63FFEE"/>
<path d="M186.762 56.5079C189.041 56.5079 190.889 54.6602 190.889 52.381C190.889 50.1017 189.041 48.254 186.762 48.254C184.482 48.254 182.635 50.1017 182.635 52.381C182.635 54.6602 184.482 56.5079 186.762 56.5079Z" fill="#63FFEE"/>
<path d="M162.191 43.8095L159.143 57.7778L164.222 52.4056L162.191 43.8095Z" fill="#63FFEE"/>
<path d="M178.912 97.7778L175.147 94.6947L175.235 97.7778H174.066L173.972 94.5178L168.89 97.7778H166.762L173.935 93.1773L173.657 83.5174L173.449 76.2217L174.615 76.1905L174.826 83.5174L175.103 93.1687L180.73 97.7778H178.912Z" fill="#3F3D56"/>
<path d="M161.769 97.7778L158.004 94.6947L158.091 97.7778H156.925L156.831 94.5178L151.747 97.7778H149.619L156.791 93.1773L156.513 83.5174L156.305 76.2217L157.474 76.1905L157.685 83.5174L157.96 93.1687L163.587 97.7778H161.769Z" fill="#3F3D56"/>
<path d="M164.267 4.35373C163.294 4.35373 162.436 5.14251 161.862 6.35403C161.356 4.53225 160.293 3.26531 159.052 3.26531C158.968 3.27406 158.884 3.28873 158.801 3.30922C158.324 1.36413 157.215 0 155.923 0C154.194 0 152.793 2.43657 152.793 5.44218C152.793 8.44779 154.194 10.8844 155.923 10.8844C156.007 10.8756 156.091 10.8609 156.173 10.8405C156.65 12.7855 157.759 14.1497 159.052 14.1497C160.025 14.1497 160.884 13.3609 161.457 12.1494C161.963 13.9712 163.026 15.2381 164.267 15.2381C165.996 15.2381 167.397 12.8015 167.397 9.79591C167.397 6.7903 165.996 4.35373 164.267 4.35373Z" fill="#3F3D56"/>
<path d="M129.337 44.741L109.452 41.5083C108.45 41.3454 107.429 41.1822 106.424 41.324C105.419 41.4658 104.412 41.9618 103.9 42.8402C103.654 43.2623 103.534 43.7467 103.556 44.2352C103.578 44.7237 103.74 45.1955 104.023 45.5938C104.306 45.9922 104.698 46.3002 105.151 46.4807C105.604 46.6613 106.1 46.7068 106.579 46.6117C105.493 46.5765 104.352 46.5531 103.389 47.0559C102.426 47.5587 101.744 48.78 102.213 49.7615C102.354 50.0324 102.545 50.2742 102.775 50.4742C103.5 51.1254 104.394 51.5576 105.354 51.7207C106.314 51.8838 107.3 51.7713 108.199 51.396C107.466 52.4482 106.014 52.6045 104.757 52.8481C103.501 53.0918 102.048 53.8041 102.001 55.0861C101.949 56.5265 103.659 57.292 105.067 57.5853C112.586 59.1358 120.39 58.4983 127.559 55.7479C128.364 55.4701 129.127 55.0798 129.824 54.5887C130.605 53.9941 131.199 53.1865 131.534 52.2624C131.869 51.3384 131.932 50.3372 131.714 49.3785C131.496 48.4199 131.007 47.5445 130.306 46.8572C129.604 46.1698 128.72 45.6996 127.759 45.5028" fill="#3F3D56"/>
<path d="M216.306 61.1111C212.946 54.0244 207.624 48.0444 200.968 43.8769C200.246 43.3894 199.458 43.006 198.628 42.7378C197.662 42.4642 196.638 42.4742 195.677 42.7665C194.717 43.0588 193.861 43.621 193.213 44.3859C192.564 45.1508 192.15 46.086 192.021 47.0795C191.891 48.073 192.051 49.0827 192.482 49.9877L190.889 49.1657C194.087 55.2363 197.285 61.307 200.484 67.3777C200.967 68.2954 201.462 69.2283 202.196 69.9621C202.93 70.6958 203.954 71.2135 204.986 71.0939C205.396 71.048 205.789 70.9047 206.132 70.676C206.475 70.4473 206.757 70.1399 206.956 69.7796C207.155 69.4193 207.265 69.0166 207.276 68.6053C207.287 68.1941 207.198 67.7862 207.018 67.4161C207.467 68.0473 208.057 68.5653 208.742 68.929C209.745 69.4074 211.162 69.2162 211.674 68.2318C211.809 67.9509 211.889 67.6472 211.91 67.3366C211.996 66.3461 211.799 65.3517 211.341 64.4684C210.884 63.5851 210.186 62.849 209.326 62.3454C210.636 62.2986 211.657 63.3886 212.629 64.2652C213.601 65.1417 215.076 65.8912 216.152 65.1443C217.36 64.305 216.932 62.44 216.306 61.1111Z" fill="#3F3D56"/>
<path d="M221.705 97.7778H109.279C109.201 97.7778 109.126 97.7444 109.07 97.6848C109.015 97.6253 108.984 97.5445 108.984 97.4603C108.984 97.3761 109.015 97.2954 109.07 97.2359C109.126 97.1763 109.201 97.1429 109.279 97.1429H221.705C221.783 97.1429 221.858 97.1763 221.913 97.2359C221.969 97.2954 222 97.3761 222 97.4603C222 97.5445 221.969 97.6253 221.913 97.6848C221.858 97.7444 221.783 97.7778 221.705 97.7778Z" fill="#CACACA"/>
</svg>
